<mxfile host="Electron" agent="Mozilla/5.0 (Windows NT 10.0; Win64; x64) AppleWebKit/537.36 (KHTML, like Gecko) draw.io/24.0.4 Chrome/120.0.6099.109 Electron/28.1.0 Safari/537.36" modified="2025-05-18T17:46:59.555Z" etag="PQk71tv2Ka57vtFue4rR" version="24.0.4" type="device">
  <diagram id="C5RBs43oDa-KdzZeNtuy" name="Page-1">
    <mxGraphModel dx="819" dy="482" grid="0" gridSize="10" guides="1" tooltips="1" connect="1" arrows="1" fold="1" page="1" pageScale="1" pageWidth="827" pageHeight="1169" math="0" shadow="0">
      <root>
        <mxCell id="WIyWlLk6GJQsqaUBKTNV-0" />
        <mxCell id="WIyWlLk6GJQsqaUBKTNV-1" parent="WIyWlLk6GJQsqaUBKTNV-0" />
        <mxCell id="zkfFHV4jXpPFQw0GAbJ--0" value="usuarios" style="swimlane;fontStyle=2;align=center;verticalAlign=top;childLayout=stackLayout;horizontal=1;startSize=26;horizontalStack=0;resizeParent=1;resizeLast=0;collapsible=1;marginBottom=0;rounded=0;shadow=0;strokeWidth=1;" parent="WIyWlLk6GJQsqaUBKTNV-1" vertex="1">
          <mxGeometry x="103.75" y="234" width="160" height="320" as="geometry">
            <mxRectangle x="230" y="140" width="160" height="26" as="alternateBounds" />
          </mxGeometry>
        </mxCell>
        <mxCell id="zkfFHV4jXpPFQw0GAbJ--1" value="iud" style="text;align=left;verticalAlign=top;spacingLeft=4;spacingRight=4;overflow=hidden;rotatable=0;points=[[0,0.5],[1,0.5]];portConstraint=eastwest;" parent="zkfFHV4jXpPFQw0GAbJ--0" vertex="1">
          <mxGeometry y="26" width="160" height="26" as="geometry" />
        </mxCell>
        <mxCell id="-B2AETZd4_iXFF7m4O_9-35" value="nombre" style="text;align=left;verticalAlign=top;spacingLeft=4;spacingRight=4;overflow=hidden;rotatable=0;points=[[0,0.5],[1,0.5]];portConstraint=eastwest;" parent="zkfFHV4jXpPFQw0GAbJ--0" vertex="1">
          <mxGeometry y="52" width="160" height="26" as="geometry" />
        </mxCell>
        <mxCell id="-B2AETZd4_iXFF7m4O_9-36" value="apellidos" style="text;align=left;verticalAlign=top;spacingLeft=4;spacingRight=4;overflow=hidden;rotatable=0;points=[[0,0.5],[1,0.5]];portConstraint=eastwest;" parent="zkfFHV4jXpPFQw0GAbJ--0" vertex="1">
          <mxGeometry y="78" width="160" height="26" as="geometry" />
        </mxCell>
        <mxCell id="zkfFHV4jXpPFQw0GAbJ--2" value="edad" style="text;align=left;verticalAlign=top;spacingLeft=4;spacingRight=4;overflow=hidden;rotatable=0;points=[[0,0.5],[1,0.5]];portConstraint=eastwest;rounded=0;shadow=0;html=0;" parent="zkfFHV4jXpPFQw0GAbJ--0" vertex="1">
          <mxGeometry y="104" width="160" height="26" as="geometry" />
        </mxCell>
        <mxCell id="zkfFHV4jXpPFQw0GAbJ--3" value="sexo" style="text;align=left;verticalAlign=top;spacingLeft=4;spacingRight=4;overflow=hidden;rotatable=0;points=[[0,0.5],[1,0.5]];portConstraint=eastwest;rounded=0;shadow=0;html=0;" parent="zkfFHV4jXpPFQw0GAbJ--0" vertex="1">
          <mxGeometry y="130" width="160" height="26" as="geometry" />
        </mxCell>
        <mxCell id="-B2AETZd4_iXFF7m4O_9-33" value="objetivo" style="text;align=left;verticalAlign=top;spacingLeft=4;spacingRight=4;overflow=hidden;rotatable=0;points=[[0,0.5],[1,0.5]];portConstraint=eastwest;rounded=0;shadow=0;html=0;" parent="zkfFHV4jXpPFQw0GAbJ--0" vertex="1">
          <mxGeometry y="156" width="160" height="26" as="geometry" />
        </mxCell>
        <mxCell id="-B2AETZd4_iXFF7m4O_9-34" value="actividad" style="text;align=left;verticalAlign=top;spacingLeft=4;spacingRight=4;overflow=hidden;rotatable=0;points=[[0,0.5],[1,0.5]];portConstraint=eastwest;rounded=0;shadow=0;html=0;" parent="zkfFHV4jXpPFQw0GAbJ--0" vertex="1">
          <mxGeometry y="182" width="160" height="26" as="geometry" />
        </mxCell>
        <mxCell id="YuAJstuilIpIJBMIiTPX-0" value="obj_calorias" style="text;align=left;verticalAlign=top;spacingLeft=4;spacingRight=4;overflow=hidden;rotatable=0;points=[[0,0.5],[1,0.5]];portConstraint=eastwest;rounded=0;shadow=0;html=0;" parent="zkfFHV4jXpPFQw0GAbJ--0" vertex="1">
          <mxGeometry y="208" width="160" height="26" as="geometry" />
        </mxCell>
        <mxCell id="-B2AETZd4_iXFF7m4O_9-38" value="obj_proteinas" style="text;align=left;verticalAlign=top;spacingLeft=4;spacingRight=4;overflow=hidden;rotatable=0;points=[[0,0.5],[1,0.5]];portConstraint=eastwest;rounded=0;shadow=0;html=0;" parent="zkfFHV4jXpPFQw0GAbJ--0" vertex="1">
          <mxGeometry y="234" width="160" height="26" as="geometry" />
        </mxCell>
        <mxCell id="-B2AETZd4_iXFF7m4O_9-39" value="obj_grasas" style="text;align=left;verticalAlign=top;spacingLeft=4;spacingRight=4;overflow=hidden;rotatable=0;points=[[0,0.5],[1,0.5]];portConstraint=eastwest;rounded=0;shadow=0;html=0;" parent="zkfFHV4jXpPFQw0GAbJ--0" vertex="1">
          <mxGeometry y="260" width="160" height="26" as="geometry" />
        </mxCell>
        <mxCell id="-B2AETZd4_iXFF7m4O_9-40" value="obj_carbohidratos" style="text;align=left;verticalAlign=top;spacingLeft=4;spacingRight=4;overflow=hidden;rotatable=0;points=[[0,0.5],[1,0.5]];portConstraint=eastwest;rounded=0;shadow=0;html=0;" parent="zkfFHV4jXpPFQw0GAbJ--0" vertex="1">
          <mxGeometry y="286" width="160" height="26" as="geometry" />
        </mxCell>
        <mxCell id="zkfFHV4jXpPFQw0GAbJ--4" value="" style="line;html=1;strokeWidth=1;align=left;verticalAlign=middle;spacingTop=-1;spacingLeft=3;spacingRight=3;rotatable=0;labelPosition=right;points=[];portConstraint=eastwest;" parent="zkfFHV4jXpPFQw0GAbJ--0" vertex="1">
          <mxGeometry y="312" width="160" height="8" as="geometry" />
        </mxCell>
        <mxCell id="zkfFHV4jXpPFQw0GAbJ--6" value="alimentos" style="swimlane;fontStyle=0;align=center;verticalAlign=top;childLayout=stackLayout;horizontal=1;startSize=26;horizontalStack=0;resizeParent=1;resizeLast=0;collapsible=1;marginBottom=0;rounded=0;shadow=0;strokeWidth=1;" parent="WIyWlLk6GJQsqaUBKTNV-1" vertex="1">
          <mxGeometry x="323" y="246" width="160" height="272" as="geometry">
            <mxRectangle x="130" y="380" width="160" height="26" as="alternateBounds" />
          </mxGeometry>
        </mxCell>
        <mxCell id="zkfFHV4jXpPFQw0GAbJ--7" value="id" style="text;align=left;verticalAlign=top;spacingLeft=4;spacingRight=4;overflow=hidden;rotatable=0;points=[[0,0.5],[1,0.5]];portConstraint=eastwest;" parent="zkfFHV4jXpPFQw0GAbJ--6" vertex="1">
          <mxGeometry y="26" width="160" height="26" as="geometry" />
        </mxCell>
        <mxCell id="YuAJstuilIpIJBMIiTPX-10" value="uid" style="text;align=left;verticalAlign=top;spacingLeft=4;spacingRight=4;overflow=hidden;rotatable=0;points=[[0,0.5],[1,0.5]];portConstraint=eastwest;" parent="zkfFHV4jXpPFQw0GAbJ--6" vertex="1">
          <mxGeometry y="52" width="160" height="26" as="geometry" />
        </mxCell>
        <mxCell id="zkfFHV4jXpPFQw0GAbJ--8" value="descripcion" style="text;align=left;verticalAlign=top;spacingLeft=4;spacingRight=4;overflow=hidden;rotatable=0;points=[[0,0.5],[1,0.5]];portConstraint=eastwest;rounded=0;shadow=0;html=0;" parent="zkfFHV4jXpPFQw0GAbJ--6" vertex="1">
          <mxGeometry y="78" width="160" height="26" as="geometry" />
        </mxCell>
        <mxCell id="-B2AETZd4_iXFF7m4O_9-41" value="base" style="text;align=left;verticalAlign=top;spacingLeft=4;spacingRight=4;overflow=hidden;rotatable=0;points=[[0,0.5],[1,0.5]];portConstraint=eastwest;rounded=0;shadow=0;html=0;" parent="zkfFHV4jXpPFQw0GAbJ--6" vertex="1">
          <mxGeometry y="104" width="160" height="26" as="geometry" />
        </mxCell>
        <mxCell id="YuAJstuilIpIJBMIiTPX-12" value="calorias" style="text;align=left;verticalAlign=top;spacingLeft=4;spacingRight=4;overflow=hidden;rotatable=0;points=[[0,0.5],[1,0.5]];portConstraint=eastwest;rounded=0;shadow=0;html=0;" parent="zkfFHV4jXpPFQw0GAbJ--6" vertex="1">
          <mxGeometry y="130" width="160" height="26" as="geometry" />
        </mxCell>
        <mxCell id="-B2AETZd4_iXFF7m4O_9-42" value="proteinas" style="text;align=left;verticalAlign=top;spacingLeft=4;spacingRight=4;overflow=hidden;rotatable=0;points=[[0,0.5],[1,0.5]];portConstraint=eastwest;rounded=0;shadow=0;html=0;" parent="zkfFHV4jXpPFQw0GAbJ--6" vertex="1">
          <mxGeometry y="156" width="160" height="26" as="geometry" />
        </mxCell>
        <mxCell id="-B2AETZd4_iXFF7m4O_9-43" value="carbohidratos" style="text;align=left;verticalAlign=top;spacingLeft=4;spacingRight=4;overflow=hidden;rotatable=0;points=[[0,0.5],[1,0.5]];portConstraint=eastwest;rounded=0;shadow=0;html=0;" parent="zkfFHV4jXpPFQw0GAbJ--6" vertex="1">
          <mxGeometry y="182" width="160" height="26" as="geometry" />
        </mxCell>
        <mxCell id="-B2AETZd4_iXFF7m4O_9-44" value="grasas" style="text;align=left;verticalAlign=top;spacingLeft=4;spacingRight=4;overflow=hidden;rotatable=0;points=[[0,0.5],[1,0.5]];portConstraint=eastwest;rounded=0;shadow=0;html=0;" parent="zkfFHV4jXpPFQw0GAbJ--6" vertex="1">
          <mxGeometry y="208" width="160" height="26" as="geometry" />
        </mxCell>
        <mxCell id="1fClYbyYMej3hWZYxCvi-1" value="ref_ext" style="text;align=left;verticalAlign=top;spacingLeft=4;spacingRight=4;overflow=hidden;rotatable=0;points=[[0,0.5],[1,0.5]];portConstraint=eastwest;rounded=0;shadow=0;html=0;" parent="zkfFHV4jXpPFQw0GAbJ--6" vertex="1">
          <mxGeometry y="234" width="160" height="26" as="geometry" />
        </mxCell>
        <mxCell id="zkfFHV4jXpPFQw0GAbJ--9" value="" style="line;html=1;strokeWidth=1;align=left;verticalAlign=middle;spacingTop=-1;spacingLeft=3;spacingRight=3;rotatable=0;labelPosition=right;points=[];portConstraint=eastwest;" parent="zkfFHV4jXpPFQw0GAbJ--6" vertex="1">
          <mxGeometry y="260" width="160" height="12" as="geometry" />
        </mxCell>
        <mxCell id="zkfFHV4jXpPFQw0GAbJ--13" value="registros_comidas" style="swimlane;fontStyle=0;align=center;verticalAlign=top;childLayout=stackLayout;horizontal=1;startSize=26;horizontalStack=0;resizeParent=1;resizeLast=0;collapsible=1;marginBottom=0;rounded=0;shadow=0;strokeWidth=1;" parent="WIyWlLk6GJQsqaUBKTNV-1" vertex="1">
          <mxGeometry x="320.75" y="641" width="160" height="164" as="geometry">
            <mxRectangle x="340" y="380" width="170" height="26" as="alternateBounds" />
          </mxGeometry>
        </mxCell>
        <mxCell id="zkfFHV4jXpPFQw0GAbJ--14" value="uid" style="text;align=left;verticalAlign=top;spacingLeft=4;spacingRight=4;overflow=hidden;rotatable=0;points=[[0,0.5],[1,0.5]];portConstraint=eastwest;" parent="zkfFHV4jXpPFQw0GAbJ--13" vertex="1">
          <mxGeometry y="26" width="160" height="26" as="geometry" />
        </mxCell>
        <mxCell id="-B2AETZd4_iXFF7m4O_9-46" value="fecha" style="text;align=left;verticalAlign=top;spacingLeft=4;spacingRight=4;overflow=hidden;rotatable=0;points=[[0,0.5],[1,0.5]];portConstraint=eastwest;" parent="zkfFHV4jXpPFQw0GAbJ--13" vertex="1">
          <mxGeometry y="52" width="160" height="26" as="geometry" />
        </mxCell>
        <mxCell id="-B2AETZd4_iXFF7m4O_9-47" value="tipo_comida_id" style="text;align=left;verticalAlign=top;spacingLeft=4;spacingRight=4;overflow=hidden;rotatable=0;points=[[0,0.5],[1,0.5]];portConstraint=eastwest;" parent="zkfFHV4jXpPFQw0GAbJ--13" vertex="1">
          <mxGeometry y="78" width="160" height="26" as="geometry" />
        </mxCell>
        <mxCell id="-B2AETZd4_iXFF7m4O_9-49" value="codigo_alimento" style="text;align=left;verticalAlign=top;spacingLeft=4;spacingRight=4;overflow=hidden;rotatable=0;points=[[0,0.5],[1,0.5]];portConstraint=eastwest;" parent="zkfFHV4jXpPFQw0GAbJ--13" vertex="1">
          <mxGeometry y="104" width="160" height="26" as="geometry" />
        </mxCell>
        <mxCell id="1fClYbyYMej3hWZYxCvi-0" value="cantidad" style="text;align=left;verticalAlign=top;spacingLeft=4;spacingRight=4;overflow=hidden;rotatable=0;points=[[0,0.5],[1,0.5]];portConstraint=eastwest;" parent="zkfFHV4jXpPFQw0GAbJ--13" vertex="1">
          <mxGeometry y="130" width="160" height="26" as="geometry" />
        </mxCell>
        <mxCell id="zkfFHV4jXpPFQw0GAbJ--15" value="" style="line;html=1;strokeWidth=1;align=left;verticalAlign=middle;spacingTop=-1;spacingLeft=3;spacingRight=3;rotatable=0;labelPosition=right;points=[];portConstraint=eastwest;" parent="zkfFHV4jXpPFQw0GAbJ--13" vertex="1">
          <mxGeometry y="156" width="160" height="8" as="geometry" />
        </mxCell>
        <mxCell id="zkfFHV4jXpPFQw0GAbJ--17" value="tipos_comidas" style="swimlane;fontStyle=0;align=center;verticalAlign=top;childLayout=stackLayout;horizontal=1;startSize=26;horizontalStack=0;resizeParent=1;resizeLast=0;collapsible=1;marginBottom=0;rounded=0;shadow=0;strokeWidth=1;" parent="WIyWlLk6GJQsqaUBKTNV-1" vertex="1">
          <mxGeometry x="550.75" y="297" width="160" height="86" as="geometry">
            <mxRectangle x="550" y="140" width="160" height="26" as="alternateBounds" />
          </mxGeometry>
        </mxCell>
        <mxCell id="zkfFHV4jXpPFQw0GAbJ--18" value="cod" style="text;align=left;verticalAlign=top;spacingLeft=4;spacingRight=4;overflow=hidden;rotatable=0;points=[[0,0.5],[1,0.5]];portConstraint=eastwest;" parent="zkfFHV4jXpPFQw0GAbJ--17" vertex="1">
          <mxGeometry y="26" width="160" height="26" as="geometry" />
        </mxCell>
        <mxCell id="zkfFHV4jXpPFQw0GAbJ--19" value="descripcion" style="text;align=left;verticalAlign=top;spacingLeft=4;spacingRight=4;overflow=hidden;rotatable=0;points=[[0,0.5],[1,0.5]];portConstraint=eastwest;rounded=0;shadow=0;html=0;" parent="zkfFHV4jXpPFQw0GAbJ--17" vertex="1">
          <mxGeometry y="52" width="160" height="26" as="geometry" />
        </mxCell>
        <mxCell id="zkfFHV4jXpPFQw0GAbJ--23" value="" style="line;html=1;strokeWidth=1;align=left;verticalAlign=middle;spacingTop=-1;spacingLeft=3;spacingRight=3;rotatable=0;labelPosition=right;points=[];portConstraint=eastwest;" parent="zkfFHV4jXpPFQw0GAbJ--17" vertex="1">
          <mxGeometry y="78" width="160" height="8" as="geometry" />
        </mxCell>
        <mxCell id="-B2AETZd4_iXFF7m4O_9-10" value="" style="group" parent="WIyWlLk6GJQsqaUBKTNV-1" vertex="1" connectable="0">
          <mxGeometry x="170.75" y="646" width="50" height="20" as="geometry" />
        </mxCell>
        <mxCell id="-B2AETZd4_iXFF7m4O_9-8" value="" style="triangle;whiteSpace=wrap;html=1;fillColor=#1A1A1A;" parent="-B2AETZd4_iXFF7m4O_9-10" vertex="1">
          <mxGeometry x="25" y="-2" width="25" height="20" as="geometry" />
        </mxCell>
        <mxCell id="-B2AETZd4_iXFF7m4O_9-9" value="" style="triangle;whiteSpace=wrap;html=1;rotation=-180;" parent="-B2AETZd4_iXFF7m4O_9-10" vertex="1">
          <mxGeometry y="-2" width="25" height="20" as="geometry" />
        </mxCell>
        <mxCell id="-B2AETZd4_iXFF7m4O_9-12" value="" style="group;rotation=90;" parent="WIyWlLk6GJQsqaUBKTNV-1" vertex="1" connectable="0">
          <mxGeometry x="380.75" y="570" width="50" height="20" as="geometry" />
        </mxCell>
        <mxCell id="-B2AETZd4_iXFF7m4O_9-13" value="" style="triangle;whiteSpace=wrap;html=1;fillColor=#1A1A1A;rotation=90;" parent="-B2AETZd4_iXFF7m4O_9-12" vertex="1">
          <mxGeometry x="13" y="13" width="25" height="20" as="geometry" />
        </mxCell>
        <mxCell id="-B2AETZd4_iXFF7m4O_9-14" value="" style="triangle;whiteSpace=wrap;html=1;rotation=-90;" parent="-B2AETZd4_iXFF7m4O_9-12" vertex="1">
          <mxGeometry x="13" y="-12" width="25" height="20" as="geometry" />
        </mxCell>
        <mxCell id="-B2AETZd4_iXFF7m4O_9-15" value="" style="group;rotation=-180;" parent="WIyWlLk6GJQsqaUBKTNV-1" vertex="1" connectable="0">
          <mxGeometry x="579.75" y="644" width="50" height="20" as="geometry" />
        </mxCell>
        <mxCell id="-B2AETZd4_iXFF7m4O_9-16" value="" style="triangle;whiteSpace=wrap;html=1;fillColor=#1A1A1A;rotation=-180;" parent="-B2AETZd4_iXFF7m4O_9-15" vertex="1">
          <mxGeometry width="25" height="20" as="geometry" />
        </mxCell>
        <mxCell id="-B2AETZd4_iXFF7m4O_9-17" value="" style="triangle;whiteSpace=wrap;html=1;rotation=-360;" parent="-B2AETZd4_iXFF7m4O_9-15" vertex="1">
          <mxGeometry x="25" width="25" height="20" as="geometry" />
        </mxCell>
        <mxCell id="-B2AETZd4_iXFF7m4O_9-22" value="" style="shape=partialRectangle;whiteSpace=wrap;html=1;bottom=0;right=0;fillColor=none;rotation=-90;" parent="WIyWlLk6GJQsqaUBKTNV-1" vertex="1">
          <mxGeometry x="-48.62" y="435.12" width="340" height="98.75" as="geometry" />
        </mxCell>
        <mxCell id="-B2AETZd4_iXFF7m4O_9-25" value="" style="shape=partialRectangle;whiteSpace=wrap;html=1;bottom=0;right=0;fillColor=none;rotation=-180;" parent="WIyWlLk6GJQsqaUBKTNV-1" vertex="1">
          <mxGeometry x="630.75" y="315" width="110.75" height="339" as="geometry" />
        </mxCell>
        <mxCell id="-B2AETZd4_iXFF7m4O_9-27" value="" style="line;strokeWidth=1;html=1;" parent="WIyWlLk6GJQsqaUBKTNV-1" vertex="1">
          <mxGeometry x="220.75" y="649" width="100" height="10" as="geometry" />
        </mxCell>
        <mxCell id="-B2AETZd4_iXFF7m4O_9-28" value="" style="line;strokeWidth=1;html=1;" parent="WIyWlLk6GJQsqaUBKTNV-1" vertex="1">
          <mxGeometry x="480.75" y="649" width="100" height="10" as="geometry" />
        </mxCell>
        <mxCell id="-B2AETZd4_iXFF7m4O_9-29" value="" style="line;strokeWidth=1;html=1;" parent="WIyWlLk6GJQsqaUBKTNV-1" vertex="1">
          <mxGeometry x="72.75" y="310" width="28" height="10" as="geometry" />
        </mxCell>
        <mxCell id="-B2AETZd4_iXFF7m4O_9-30" value="" style="line;strokeWidth=1;html=1;" parent="WIyWlLk6GJQsqaUBKTNV-1" vertex="1">
          <mxGeometry x="710.75" y="309" width="30" height="10" as="geometry" />
        </mxCell>
        <mxCell id="-B2AETZd4_iXFF7m4O_9-31" value="" style="line;strokeWidth=1;direction=south;html=1;" parent="WIyWlLk6GJQsqaUBKTNV-1" vertex="1">
          <mxGeometry x="400.75" y="606" width="10" height="34" as="geometry" />
        </mxCell>
        <mxCell id="-B2AETZd4_iXFF7m4O_9-32" value="" style="line;strokeWidth=1;direction=south;html=1;" parent="WIyWlLk6GJQsqaUBKTNV-1" vertex="1">
          <mxGeometry x="400.75" y="520" width="10" height="37" as="geometry" />
        </mxCell>
        <mxCell id="YuAJstuilIpIJBMIiTPX-1" value="" style="endArrow=none;html=1;rounded=0;" parent="WIyWlLk6GJQsqaUBKTNV-1" edge="1">
          <mxGeometry width="50" height="50" relative="1" as="geometry">
            <mxPoint x="230.75" y="234" as="sourcePoint" />
            <mxPoint x="230.75" y="167" as="targetPoint" />
          </mxGeometry>
        </mxCell>
        <mxCell id="YuAJstuilIpIJBMIiTPX-2" value="" style="endArrow=none;html=1;rounded=0;" parent="WIyWlLk6GJQsqaUBKTNV-1" edge="1">
          <mxGeometry width="50" height="50" relative="1" as="geometry">
            <mxPoint x="230.75" y="166" as="sourcePoint" />
            <mxPoint x="398" y="166" as="targetPoint" />
          </mxGeometry>
        </mxCell>
        <mxCell id="YuAJstuilIpIJBMIiTPX-3" value="" style="group;rotation=90;" parent="WIyWlLk6GJQsqaUBKTNV-1" vertex="1" connectable="0">
          <mxGeometry x="373.75" y="194" width="50" height="20" as="geometry" />
        </mxCell>
        <mxCell id="YuAJstuilIpIJBMIiTPX-4" value="" style="triangle;whiteSpace=wrap;html=1;fillColor=#1A1A1A;rotation=90;" parent="YuAJstuilIpIJBMIiTPX-3" vertex="1">
          <mxGeometry x="13" y="13" width="25" height="20" as="geometry" />
        </mxCell>
        <mxCell id="YuAJstuilIpIJBMIiTPX-5" value="" style="triangle;whiteSpace=wrap;html=1;rotation=-90;" parent="YuAJstuilIpIJBMIiTPX-3" vertex="1">
          <mxGeometry x="13" y="-12" width="25" height="20" as="geometry" />
        </mxCell>
        <mxCell id="YuAJstuilIpIJBMIiTPX-8" value="" style="endArrow=none;html=1;rounded=0;" parent="WIyWlLk6GJQsqaUBKTNV-1" edge="1">
          <mxGeometry width="50" height="50" relative="1" as="geometry">
            <mxPoint x="399" y="180" as="sourcePoint" />
            <mxPoint x="398" y="166" as="targetPoint" />
          </mxGeometry>
        </mxCell>
        <mxCell id="YuAJstuilIpIJBMIiTPX-9" value="" style="endArrow=none;html=1;rounded=0;" parent="WIyWlLk6GJQsqaUBKTNV-1" edge="1">
          <mxGeometry width="50" height="50" relative="1" as="geometry">
            <mxPoint x="400" y="246" as="sourcePoint" />
            <mxPoint x="399.65" y="230" as="targetPoint" />
          </mxGeometry>
        </mxCell>
        <mxCell id="hkqOgsj2KpJ7Qe9YwvPh-47" style="edgeStyle=orthogonalEdgeStyle;rounded=0;orthogonalLoop=1;jettySize=auto;html=1;exitX=0.25;exitY=1;exitDx=0;exitDy=0;entryX=1;entryY=0.5;entryDx=0;entryDy=0;endArrow=none;endFill=0;" edge="1" parent="WIyWlLk6GJQsqaUBKTNV-1" source="hkqOgsj2KpJ7Qe9YwvPh-1" target="hkqOgsj2KpJ7Qe9YwvPh-46">
          <mxGeometry relative="1" as="geometry">
            <mxPoint x="990.3103448275863" y="274.55172413793105" as="targetPoint" />
            <Array as="points">
              <mxPoint x="1085" y="250" />
            </Array>
          </mxGeometry>
        </mxCell>
        <mxCell id="hkqOgsj2KpJ7Qe9YwvPh-1" value="usuarios" style="text;html=1;align=center;verticalAlign=middle;whiteSpace=wrap;rounded=0;fillColor=#f5f5f5;strokeWidth=1;perimeterSpacing=1;fontColor=#333333;strokeColor=#666666;" vertex="1" parent="WIyWlLk6GJQsqaUBKTNV-1">
          <mxGeometry x="1071" y="182" width="60" height="30" as="geometry" />
        </mxCell>
        <mxCell id="hkqOgsj2KpJ7Qe9YwvPh-41" style="edgeStyle=orthogonalEdgeStyle;rounded=0;orthogonalLoop=1;jettySize=auto;html=1;entryX=1;entryY=0.5;entryDx=0;entryDy=0;endArrow=none;endFill=0;" edge="1" parent="WIyWlLk6GJQsqaUBKTNV-1" source="hkqOgsj2KpJ7Qe9YwvPh-2" target="hkqOgsj2KpJ7Qe9YwvPh-36">
          <mxGeometry relative="1" as="geometry" />
        </mxCell>
        <mxCell id="hkqOgsj2KpJ7Qe9YwvPh-48" style="edgeStyle=orthogonalEdgeStyle;rounded=0;orthogonalLoop=1;jettySize=auto;html=1;entryX=1;entryY=0.5;entryDx=0;entryDy=0;endArrow=none;endFill=0;" edge="1" parent="WIyWlLk6GJQsqaUBKTNV-1" source="hkqOgsj2KpJ7Qe9YwvPh-2" target="hkqOgsj2KpJ7Qe9YwvPh-45">
          <mxGeometry relative="1" as="geometry">
            <Array as="points">
              <mxPoint x="872" y="249" />
            </Array>
          </mxGeometry>
        </mxCell>
        <mxCell id="hkqOgsj2KpJ7Qe9YwvPh-2" value="alimentos" style="text;html=1;align=center;verticalAlign=middle;whiteSpace=wrap;rounded=0;fillColor=#f5f5f5;strokeWidth=1;perimeterSpacing=1;fontColor=#333333;strokeColor=#666666;" vertex="1" parent="WIyWlLk6GJQsqaUBKTNV-1">
          <mxGeometry x="847" y="338" width="60" height="30" as="geometry" />
        </mxCell>
        <mxCell id="hkqOgsj2KpJ7Qe9YwvPh-43" style="edgeStyle=orthogonalEdgeStyle;rounded=0;orthogonalLoop=1;jettySize=auto;html=1;exitX=0;exitY=0.5;exitDx=0;exitDy=0;endArrow=none;endFill=0;" edge="1" parent="WIyWlLk6GJQsqaUBKTNV-1" source="hkqOgsj2KpJ7Qe9YwvPh-3">
          <mxGeometry relative="1" as="geometry">
            <mxPoint x="1262.873563218391" y="351.9770114942529" as="targetPoint" />
          </mxGeometry>
        </mxCell>
        <mxCell id="hkqOgsj2KpJ7Qe9YwvPh-3" value="tipos_comidas" style="text;html=1;align=center;verticalAlign=middle;whiteSpace=wrap;rounded=0;fillColor=#f5f5f5;strokeWidth=1;perimeterSpacing=1;fontColor=#333333;strokeColor=#666666;" vertex="1" parent="WIyWlLk6GJQsqaUBKTNV-1">
          <mxGeometry x="1304" y="336.5" width="91" height="31" as="geometry" />
        </mxCell>
        <mxCell id="hkqOgsj2KpJ7Qe9YwvPh-40" style="edgeStyle=orthogonalEdgeStyle;rounded=0;orthogonalLoop=1;jettySize=auto;html=1;exitX=0;exitY=0.5;exitDx=0;exitDy=0;entryX=1;entryY=0.5;entryDx=0;entryDy=0;endArrow=none;endFill=0;" edge="1" parent="WIyWlLk6GJQsqaUBKTNV-1" source="hkqOgsj2KpJ7Qe9YwvPh-4" target="hkqOgsj2KpJ7Qe9YwvPh-35">
          <mxGeometry relative="1" as="geometry" />
        </mxCell>
        <mxCell id="hkqOgsj2KpJ7Qe9YwvPh-42" style="edgeStyle=orthogonalEdgeStyle;rounded=0;orthogonalLoop=1;jettySize=auto;html=1;endArrow=none;endFill=0;" edge="1" parent="WIyWlLk6GJQsqaUBKTNV-1" source="hkqOgsj2KpJ7Qe9YwvPh-4">
          <mxGeometry relative="1" as="geometry">
            <mxPoint x="1216.6666666666667" y="353" as="targetPoint" />
          </mxGeometry>
        </mxCell>
        <mxCell id="hkqOgsj2KpJ7Qe9YwvPh-4" value="registros_comidas" style="text;html=1;align=center;verticalAlign=middle;whiteSpace=wrap;rounded=0;fillColor=#f5f5f5;strokeWidth=1;perimeterSpacing=1;fontColor=#333333;strokeColor=#666666;" vertex="1" parent="WIyWlLk6GJQsqaUBKTNV-1">
          <mxGeometry x="1038" y="337.5" width="126" height="31" as="geometry" />
        </mxCell>
        <mxCell id="hkqOgsj2KpJ7Qe9YwvPh-22" style="edgeStyle=orthogonalEdgeStyle;rounded=0;orthogonalLoop=1;jettySize=auto;html=1;startFill=1;endFill=0;anchorPointDirection=1;editable=1;movable=1;resizable=1;rotatable=1;deletable=1;locked=0;connectable=1;endArrow=none;" edge="1" parent="WIyWlLk6GJQsqaUBKTNV-1" source="hkqOgsj2KpJ7Qe9YwvPh-5">
          <mxGeometry relative="1" as="geometry">
            <mxPoint x="959.3809523809523" y="199.42857142857144" as="targetPoint" />
            <Array as="points">
              <mxPoint x="916" y="199" />
              <mxPoint x="959" y="199" />
            </Array>
          </mxGeometry>
        </mxCell>
        <mxCell id="hkqOgsj2KpJ7Qe9YwvPh-5" value="objetivos" style="text;html=1;align=center;verticalAlign=middle;whiteSpace=wrap;rounded=0;fillColor=#f5f5f5;strokeWidth=1;perimeterSpacing=1;fontColor=#333333;strokeColor=#666666;" vertex="1" parent="WIyWlLk6GJQsqaUBKTNV-1">
          <mxGeometry x="853" y="78" width="126" height="32" as="geometry" />
        </mxCell>
        <mxCell id="hkqOgsj2KpJ7Qe9YwvPh-23" style="edgeStyle=orthogonalEdgeStyle;rounded=0;orthogonalLoop=1;jettySize=auto;html=1;endArrow=none;endFill=0;" edge="1" parent="WIyWlLk6GJQsqaUBKTNV-1">
          <mxGeometry relative="1" as="geometry">
            <mxPoint x="1237" y="197" as="targetPoint" />
            <mxPoint x="1285" y="106" as="sourcePoint" />
            <Array as="points">
              <mxPoint x="1285" y="197" />
            </Array>
          </mxGeometry>
        </mxCell>
        <mxCell id="hkqOgsj2KpJ7Qe9YwvPh-6" value="actividades" style="text;html=1;align=center;verticalAlign=middle;whiteSpace=wrap;rounded=0;fillColor=#f5f5f5;strokeWidth=1;perimeterSpacing=1;fontColor=#333333;strokeColor=#666666;" vertex="1" parent="WIyWlLk6GJQsqaUBKTNV-1">
          <mxGeometry x="1222" y="74" width="126" height="32" as="geometry" />
        </mxCell>
        <mxCell id="hkqOgsj2KpJ7Qe9YwvPh-12" value="" style="group;rotation=-180;" vertex="1" connectable="0" parent="WIyWlLk6GJQsqaUBKTNV-1">
          <mxGeometry x="1187" y="187" width="50" height="20" as="geometry" />
        </mxCell>
        <mxCell id="hkqOgsj2KpJ7Qe9YwvPh-13" value="" style="triangle;whiteSpace=wrap;html=1;fillColor=#1A1A1A;rotation=-180;" vertex="1" parent="hkqOgsj2KpJ7Qe9YwvPh-12">
          <mxGeometry width="25" height="20" as="geometry" />
        </mxCell>
        <mxCell id="hkqOgsj2KpJ7Qe9YwvPh-14" value="" style="triangle;whiteSpace=wrap;html=1;rotation=-360;" vertex="1" parent="hkqOgsj2KpJ7Qe9YwvPh-12">
          <mxGeometry x="25" width="25" height="20" as="geometry" />
        </mxCell>
        <mxCell id="hkqOgsj2KpJ7Qe9YwvPh-15" value="" style="group" vertex="1" connectable="0" parent="WIyWlLk6GJQsqaUBKTNV-1">
          <mxGeometry x="959" y="191" width="50" height="20" as="geometry" />
        </mxCell>
        <mxCell id="hkqOgsj2KpJ7Qe9YwvPh-16" value="" style="triangle;whiteSpace=wrap;html=1;fillColor=#1A1A1A;" vertex="1" parent="hkqOgsj2KpJ7Qe9YwvPh-15">
          <mxGeometry x="25" y="-2" width="25" height="20" as="geometry" />
        </mxCell>
        <mxCell id="hkqOgsj2KpJ7Qe9YwvPh-17" value="" style="triangle;whiteSpace=wrap;html=1;rotation=-180;" vertex="1" parent="hkqOgsj2KpJ7Qe9YwvPh-15">
          <mxGeometry y="-2" width="25" height="20" as="geometry" />
        </mxCell>
        <mxCell id="hkqOgsj2KpJ7Qe9YwvPh-24" style="edgeStyle=orthogonalEdgeStyle;rounded=0;orthogonalLoop=1;jettySize=auto;html=1;entryX=0.829;entryY=0.5;entryDx=0;entryDy=0;entryPerimeter=0;endArrow=none;endFill=0;" edge="1" parent="WIyWlLk6GJQsqaUBKTNV-1" source="hkqOgsj2KpJ7Qe9YwvPh-1" target="hkqOgsj2KpJ7Qe9YwvPh-13">
          <mxGeometry relative="1" as="geometry" />
        </mxCell>
        <mxCell id="hkqOgsj2KpJ7Qe9YwvPh-25" style="edgeStyle=orthogonalEdgeStyle;rounded=0;orthogonalLoop=1;jettySize=auto;html=1;exitX=1;exitY=0.5;exitDx=0;exitDy=0;entryX=0.014;entryY=0.57;entryDx=0;entryDy=0;entryPerimeter=0;endArrow=none;endFill=0;" edge="1" parent="WIyWlLk6GJQsqaUBKTNV-1" source="hkqOgsj2KpJ7Qe9YwvPh-16" target="hkqOgsj2KpJ7Qe9YwvPh-1">
          <mxGeometry relative="1" as="geometry" />
        </mxCell>
        <mxCell id="hkqOgsj2KpJ7Qe9YwvPh-28" value="" style="group;rotation=90;" vertex="1" connectable="0" parent="WIyWlLk6GJQsqaUBKTNV-1">
          <mxGeometry x="1075" y="266" width="50" height="20" as="geometry" />
        </mxCell>
        <mxCell id="hkqOgsj2KpJ7Qe9YwvPh-29" value="" style="triangle;whiteSpace=wrap;html=1;fillColor=#1A1A1A;rotation=90;" vertex="1" parent="hkqOgsj2KpJ7Qe9YwvPh-28">
          <mxGeometry x="13" y="13" width="25" height="20" as="geometry" />
        </mxCell>
        <mxCell id="hkqOgsj2KpJ7Qe9YwvPh-30" value="" style="triangle;whiteSpace=wrap;html=1;rotation=-90;" vertex="1" parent="hkqOgsj2KpJ7Qe9YwvPh-28">
          <mxGeometry x="13" y="-12" width="25" height="20" as="geometry" />
        </mxCell>
        <mxCell id="hkqOgsj2KpJ7Qe9YwvPh-32" style="edgeStyle=orthogonalEdgeStyle;rounded=0;orthogonalLoop=1;jettySize=auto;html=1;entryX=1;entryY=0.5;entryDx=0;entryDy=0;endArrow=none;endFill=0;" edge="1" parent="WIyWlLk6GJQsqaUBKTNV-1" source="hkqOgsj2KpJ7Qe9YwvPh-1" target="hkqOgsj2KpJ7Qe9YwvPh-30">
          <mxGeometry relative="1" as="geometry" />
        </mxCell>
        <mxCell id="hkqOgsj2KpJ7Qe9YwvPh-33" style="edgeStyle=orthogonalEdgeStyle;rounded=0;orthogonalLoop=1;jettySize=auto;html=1;exitX=1;exitY=0.5;exitDx=0;exitDy=0;endArrow=none;endFill=0;" edge="1" parent="WIyWlLk6GJQsqaUBKTNV-1" source="hkqOgsj2KpJ7Qe9YwvPh-29">
          <mxGeometry relative="1" as="geometry">
            <mxPoint x="1101" y="337" as="targetPoint" />
          </mxGeometry>
        </mxCell>
        <mxCell id="hkqOgsj2KpJ7Qe9YwvPh-34" value="" style="group" vertex="1" connectable="0" parent="WIyWlLk6GJQsqaUBKTNV-1">
          <mxGeometry x="955" y="347.5" width="50" height="20" as="geometry" />
        </mxCell>
        <mxCell id="hkqOgsj2KpJ7Qe9YwvPh-35" value="" style="triangle;whiteSpace=wrap;html=1;fillColor=#1A1A1A;" vertex="1" parent="hkqOgsj2KpJ7Qe9YwvPh-34">
          <mxGeometry x="25" y="-5" width="25" height="20" as="geometry" />
        </mxCell>
        <mxCell id="hkqOgsj2KpJ7Qe9YwvPh-36" value="" style="triangle;whiteSpace=wrap;html=1;rotation=-180;" vertex="1" parent="hkqOgsj2KpJ7Qe9YwvPh-34">
          <mxGeometry y="-5" width="25" height="20" as="geometry" />
        </mxCell>
        <mxCell id="hkqOgsj2KpJ7Qe9YwvPh-37" value="" style="group;rotation=-180;" vertex="1" connectable="0" parent="WIyWlLk6GJQsqaUBKTNV-1">
          <mxGeometry x="1214" y="342" width="50" height="20" as="geometry" />
        </mxCell>
        <mxCell id="hkqOgsj2KpJ7Qe9YwvPh-38" value="" style="triangle;whiteSpace=wrap;html=1;fillColor=#1A1A1A;rotation=-180;" vertex="1" parent="hkqOgsj2KpJ7Qe9YwvPh-37">
          <mxGeometry width="25" height="20" as="geometry" />
        </mxCell>
        <mxCell id="hkqOgsj2KpJ7Qe9YwvPh-39" value="" style="triangle;whiteSpace=wrap;html=1;rotation=-360;" vertex="1" parent="hkqOgsj2KpJ7Qe9YwvPh-37">
          <mxGeometry x="25" width="25" height="20" as="geometry" />
        </mxCell>
        <mxCell id="hkqOgsj2KpJ7Qe9YwvPh-44" value="" style="group;rotation=-180;" vertex="1" connectable="0" parent="WIyWlLk6GJQsqaUBKTNV-1">
          <mxGeometry x="941" y="240" width="50" height="20" as="geometry" />
        </mxCell>
        <mxCell id="hkqOgsj2KpJ7Qe9YwvPh-45" value="" style="triangle;whiteSpace=wrap;html=1;fillColor=#1A1A1A;rotation=-180;" vertex="1" parent="hkqOgsj2KpJ7Qe9YwvPh-44">
          <mxGeometry y="-1" width="25" height="20" as="geometry" />
        </mxCell>
        <mxCell id="hkqOgsj2KpJ7Qe9YwvPh-46" value="" style="triangle;whiteSpace=wrap;html=1;rotation=-360;" vertex="1" parent="hkqOgsj2KpJ7Qe9YwvPh-44">
          <mxGeometry x="25" width="25" height="20" as="geometry" />
        </mxCell>
        <mxCell id="hkqOgsj2KpJ7Qe9YwvPh-55" value="E" style="text;html=1;align=center;verticalAlign=middle;whiteSpace=wrap;rounded=0;" vertex="1" parent="WIyWlLk6GJQsqaUBKTNV-1">
          <mxGeometry x="993" y="327" width="60" height="30" as="geometry" />
        </mxCell>
        <mxCell id="hkqOgsj2KpJ7Qe9YwvPh-56" value="" style="rounded=0;whiteSpace=wrap;html=1;fillColor=none;fontColor=#333333;strokeColor=#666666;" vertex="1" parent="WIyWlLk6GJQsqaUBKTNV-1">
          <mxGeometry x="1035" y="334" width="132" height="38" as="geometry" />
        </mxCell>
        <mxCell id="hkqOgsj2KpJ7Qe9YwvPh-57" value="E" style="text;html=1;align=center;verticalAlign=middle;whiteSpace=wrap;rounded=0;" vertex="1" parent="WIyWlLk6GJQsqaUBKTNV-1">
          <mxGeometry x="1081" y="310" width="60" height="30" as="geometry" />
        </mxCell>
        <mxCell id="hkqOgsj2KpJ7Qe9YwvPh-58" value="E" style="text;html=1;align=center;verticalAlign=middle;whiteSpace=wrap;rounded=0;" vertex="1" parent="WIyWlLk6GJQsqaUBKTNV-1">
          <mxGeometry x="1146" y="327" width="60" height="30" as="geometry" />
        </mxCell>
      </root>
    </mxGraphModel>
  </diagram>
</mxfile>
